<svg width="2396" height="1863" xmlns="http://www.w3.org/2000/svg">
 <g stroke="#000" stroke-linejoin="bevel" stroke-width="1.0">
  <g fill="#ffffff">
   <path d="M0,0l2396,0l0,1863l-2396,0l0,-1863ZM209,466l-2,64l-6,175l-6,176l-4,131l-6,181l-9,251l-3,116l36,1l2,2l8,-2l181,6l195,4l219,3l160,2l105,1l237,1l172,0l285,-4l50,-3l2,2l116,-2l1,41l14,164l28,-1l2,3l11,0l3,-5l4,0l4,-4l17,-2l3,-9l4,-2l0,-6l4,-3l4,1l2,-4l4,0l2,-3l-3,-12l-7,-14l-10,-7l-10,-13l-1,-11l2,-7l3,-5l4,0l2,-3l0,-4l-3,-2l2,-18l-17,-13l-3,-12l9,-16l11,-4l14,-20l8,-24l10,-18l16,-12l7,2l20,-19l7,-4l26,-1l11,-3l8,-4l1,-3l10,-7l13,0l4,-3l3,-6l0,-9l-3,-5l2,-15l9,-6l12,-4l7,-8l2,-7l13,-5l13,-15l18,-11l9,0l15,-6l1,-4l9,-7l3,-11l16,3l7,-7l9,-1l7,-8l-1,-5l-7,-9l-6,-2l-5,-13l-5,-5l-24,-13l-7,-18l-10,-11l-10,-3l-11,-10l-3,-15l-8,-14l-7,-4l-16,3l-5,-5l-5,-1l-5,-17l1,-11l2,-1l-3,-31l-11,-12l-7,-3l-10,-1l-6,6l-9,-1l-4,-4l1,-11l-3,-4l-1,-6l4,-1l0,-6l-4,-6l0,-4l7,-7l1,-5l-7,-1l-3,-3l2,-12l5,-8l0,-4l-5,-4l0,-5l6,-3l3,-9l14,2l2,-5l8,-5l2,-9l5,-4l0,-4l-5,-4l0,-5l11,0l5,-6l0,-7l-9,-9l-1,-10l-8,-6l-9,-17l0,-3l-5,-2l2,-10l7,-6l3,0l4,-5l6,-1l12,-7l5,-5l4,-12l7,-6l6,-2l1,-4l-5,-1l3,-10l6,-1l6,-5l0,-3l6,-2l8,-9l2,-7l7,-7l1,-7l6,-10l0,-4l-2,-1l1,-9l6,-5l0,-7l5,-10l13,-11l0,-6l9,-2l4,-10l14,-1l9,-5l1,-5l-7,-5l-3,-8l-8,-2l-2,-4l3,-6l-1,-5l-5,0l-1,3l-14,2l-5,-10l-4,0l-4,6l-5,-1l-4,-5l-15,3l-1,-5l2,-4l-7,-2l-1,-7l-8,-3l-5,0l-3,3l-10,-1l-2,-3l1,-10l-7,-1l0,-7l-8,-5l2,-9l-4,-6l-5,-2l-2,-7l-9,-7l0,-5l4,-4l5,0l-2,-22l-3,-3l2,-8l-6,-9l1,-4l4,0l-1,-21l-7,-7l-12,0l1,-9l2,-3l8,-3l0,-6l-7,1l-2,-3l-6,-2l-1,-11l-18,-2l-2,-10l-3,0l-2,5l-5,-4l-6,1l-3,5l-3,0l-2,-3l-9,1l-1,-4l2,-1l0,-4l-5,-3l1,-11l-3,-4l-1,-9l-5,-3l-1,-4l-3,2l-5,-1l-1,-5l-8,-5l1,-8l-2,-3l-8,-3l-42,2l-240,5l-282,3l-247,2l-215,-1l-258,-2l-250,-5l-54,-2l3,-130l1,-118l-18,7l-97,48l-156,26l-2,1l-1,18l-4,149Z" stroke-width="4.0"/>
   <path d="M1528,669l22,3l23,89l58,48l52,14l-50,57l-18,2l-16,0l-4,-3l-5,0l-3,-4l-5,0l-22,-3l-35,9l-5,9l-22,-4l-8,30l-34,2l-15,7l-10,1l-8,-1l-3,-3l-34,-43l-2,-6l-8,-4l0,-7l-9,-9l-11,-1l-1,-5l-8,-1l-12,-12l-2,-5l-6,-3l-2,-5l-5,-1l-3,-8l-7,-6l-1,-11l-7,-7l-10,-2l-6,-4l-1,-9l-7,-13l-4,-2l-3,-11l-6,-2l-1,-18l0,-31l139,-1l93,-4l1,-5l4,-4l6,0l3,-6l12,-2l6,-5Z"/>
   <path d="M1031,845l1,2l51,6l12,22l8,9L1101.01,888.01L1097.01,889.03L1097.02,895.04L1092.03,895.05L1091.03,899.06L1086.04,898.08L1084.04,902.09L1082.05,900.1L1077.06,901.11L1085.1,930.2L1090.11,930.21L1090.11,933.22L1094.12,934.23L1094.12,938.24L1096.12,939.25L1095.13,941.25L1088.14,942.27L1091.15,952.3L1096.16,953.32L1093.17,960.34L1087.18,962.36L1087.18,966.37L1083.19,970.39L1088.21,980.42L1077.22,982.45L1074.23,986.47L1070.24,985.48L1068.25,980.49L1057.26,978.52L1059.27,987.55L1053.28,989.57L1050.29,996.59L1034.32,1002.64L1033.33,1008.66L1035.33,1012.67L1025.36,1020.71L1026.36,1027.73L1020.37,1029.75L1018.38,1032.76L1015.39,1030.77L1010.39,1031.78L1009.4,1036.8L1006.4,1038.81L1006.41,1044.82L1004.41,1044.83L1000.43,1051.85L992.44,1055.88L991.45,1063.9L988.46,1065.91L987.46,1070.93L984.47,1070.93L979.48,1075.96L979.49,1081.97L982.5,1087.99L985.5,1089L821,1090l-2,-3l2,-86l2,-111l14,-32l21,0l19,-5l4,-3l0,-16l138,12l12,-1Z"/>
   <path d="M1789,470l11,121l2,47l-30,3l0,13l-7,38l-215,-20l-22,-3l-21,-196l282,-3Z"/>
   <path d="M1507,473l21,196l-6,5l-12,2l-3,6l-6,0l-4,4l-1,5l-93,4l-139,1l-4,-221l247,-2Z"/>
   <path d="M1427,940l-2,5l-16,16l-26,40l-32,32l-17,5l-68,37l-20,6l-13,10l-9,6l-4,-6l-19,4l-17,-11l-5,-1l-44,25l-53,-21l-10,-2L1071.02,1083.03L1050.13,1083.26L992.45,1086.9L985.5,1089L982.5,1087.99L979.49,1081.97L979.48,1075.96L984.47,1070.93L987.46,1070.93L988.46,1065.91L991.45,1063.9L992.44,1055.88L1000.43,1051.85L1004.41,1044.83L1006.41,1044.82L1006.4,1038.81L1009.4,1036.8L1010.39,1031.78L1015.39,1030.77L1018.38,1032.76L1020.37,1029.75L1026.36,1027.73L1025.36,1020.71L1035.33,1012.67L1033.33,1008.66L1034.32,1002.64L1050.29,996.59L1053.28,989.57L1059.27,987.55L1057.26,978.52L1068.25,980.49L1070.24,985.48L1074.23,986.47L1077.22,982.45L1088.21,980.42L1083.19,970.39L1087.18,966.37L1087.18,962.36L1093.17,960.34L1096.16,953.32L1091.15,952.3L1088.14,942.27L1095.13,941.25L1096.12,939.25L1094.12,938.24L1094.12,934.23L1090.11,933.22L1090.11,930.21L1085.1,930.2L1077.06,901.11L1082.05,900.1L1084.04,902.09L1086.04,898.08L1091.03,899.06L1092.03,895.05L1097.02,895.04L1097.01,889.03L1101.01,888.01L1103,884l3,2l6,-1l3,4l2,-2l0,-7l5,0l1,-4l5,-2l-1,-15l4,-5l8,3l2,-2l-1,-6l6,0l3,-8l5,-2l1,34l39,0l0,16l6,0l10,18l4,-2l4,0l1,3l4,-3l6,2l6,-1l1,2l5,-1l2,4l12,3l2,3l8,3l5,6l6,1l2,4l-6,4l0,3l25,39l28,-7l33,-5l64,-25l5,0Z"/>
   <path d="M1045,474l215,1l4,221l0,31l-142,2l-23,-1l-55,-70l1,-184Z"/>
   <path d="M725,1300l46,2l2,3l10,3l1,9l3,4l83,2l0,6l-8,13l-20,60l-3,4l-5,-1l-3,6l1,115l-4,14l-14,29l0,5l-219,-3l-1,-5l-7,-1l0,-3l6,-3l-2,-6l8,-4l0,-3l-4,-4l3,-3l7,1l-2,-4l2,-13l-6,-4l-2,-5l-11,-6l0,-4l7,-21l40,-65l10,-12l0,-5l4,-3l1,-4l11,-4l4,-9l7,0l2,4l4,-2l5,-7l3,-16l6,0l2,-2l-1,-6l6,-3l1,-9l3,0l8,-17l6,-6l2,-8l6,-4l2,-5Z"/>
   <path d="M207,530l327,9l-2,109l-1,4l-77,-4l-1,9l-7,1l0,5l-8,3l-1,4l-7,0l0,4l-6,2l-2,6l-4,0l0,5l-7,0l0,6l-6,0l-1,6l-7,0l0,4l-6,2l-2,5l-45,0l0,3l-10,0l-100,-6l-2,-3l-4,0l-1,2l-26,-1l6,-175Z"/>
   <path d="M580,1178l1,2l-4,3l2,20l8,-3l2,7l2,2l5,-2l6,10l6,0l3,-3l3,4l3,0l1,-8l5,2l1,5l11,-3l-1,12l5,0l1,-3l5,1l1,12l5,-2l2,-5l8,0l10,10l2,-2l16,2l0,6l7,0l5,3l-3,3l0,6l2,2l6,-1l2,2l5,-10l10,5l12,-12l-2,-6l3,-2l13,4l6,8l-9,19l-15,20l0,5l-4,3l-2,6l-2,5l-6,4l-2,8l-6,6l-8,17l-3,0l-1,9l-6,3l1,6l-2,2l-6,0l-3,16l-5,7l-4,2l-2,-4l-7,0l-4,9l-11,4l-1,4l-4,3l0,5l-10,12l-4,-2l-14,0l-3,-14l-14,-8l-4,-7l-14,-7l-6,-10l-4,0l-5,-4l-10,1l-7,8l-4,-1l-3,8l-6,-1l-1,3l-8,1l-5,10l-3,-5l-8,0l-3,3l-6,-1l-2,-4l-4,-1l0,-4l-4,0l-3,-3l-9,2l-4,-3l0,-4l-5,0l-2,-3l-47,-1l-8,-2l-1,-5l-4,-4l0,-6l3,-2l13,2l3,-3l0,-11l-5,-3l29,-13l-6,-4l0,-4l7,-9l-3,-10l8,-1l0,-3l-4,-3l0,-5l7,-35l4,-6l4,1l17,-17l2,-49l-11,-11l-12,-1l-3,-13l5,-9l13,-4l4,-4l0,-3l7,-5l3,-5l-1,-14l11,-5l3,4l6,2l1,7l4,4l5,1l1,9l7,-3l2,14l2,1l2,-3l7,2l-6,6l2,12l13,12l6,0l5,8l3,0l2,-4l12,1Z"/>
   <path d="M886,1283l32,17l10,2l20,21l3,-4l1,-16l3,-7l50,27l4,-1l11,-22l7,33l38,30l-8,20l-18,16l0,10l6,1l2,8l-8,3l1,15l-8,10l-6,20l-8,14l-14,45l-17,31l-12,15l-1,5l-160,-2l0,-5l14,-29l4,-14l-1,-115l3,-6l5,1l3,-4l20,-60l8,-13l0,-6l6,-7l-2,-12l3,0l3,-14l6,-7Z"/>
   <path d="M787,472l258,2l-1,184l-78,1l-1,7l-21,0l-2,-14l-54,0l-12,2l-105,-1l4,-100l9,0l1,-5l2,0l0,-76Z"/>
   <path d="M1800,1285l104,85l-24,14l4,34l-21,40l1,8l3,2l-5,5l3,27l-6,-1l-1,9l-5,1l2,9l-6,5l1,5l-5,6l1,3l-3,6l-4,2l-1,8l-8,1l0,7l-5,2l-2,8l-50,3l-2,-7l-10,-12l-3,-9l-5,-1l-8,-12l-11,-8l-4,-6l0,-6l-10,-8l-1,-12l-4,-11l-6,-1l-5,-5l-10,-3l-8,-5l-8,-9l-4,-18l-11,-13l-2,-12l-16,3l-6,-3l-25,-4l-6,-5l-6,-13l-12,-11l2,-6l3,-1l5,-9l6,2l6,-8l8,0l12,-12l9,0l6,-3l47,-21l50,-9l56,-31Z"/>
   <path d="M1907,746l2,4l-1,10l2,3l10,3l4,5l8,3l10,9l20,3l1,10l-3,1l0,6l2,8l4,2l0,10l9,2l1,3l1,31l2,6l5,4l6,-1l1,3l4,0l0,5l-9,7l0,5l-2,2l-5,-1l-1,3l-6,-6l-12,2l-13,14l-7,-1l0,5l-4,1l-2,20l4,4l1,5l7,1l2,11l-24,12l-9,1l-8,4l-1,4l-53,27l-13,5l-65,-22l-9,-43l0,-47l-4,-1l-14,3l-16,-34l2,-51l11,-34l94,-4l68,-22Z"/>
   <path d="M1539,1333l7,1l5,10l10,1l11,9l6,2l2,3l2,19l3,4l5,1l12,11l6,13l6,5l25,4l6,3l16,-3l2,12l11,13l4,18l8,9l8,5l10,3l5,5l6,1l4,11l1,12l10,8l0,6l4,6l11,8l8,12l5,1l3,9l10,12l2,7l-285,4l0,-54l5,-3l3,-6l8,-3l-2,-7l-5,-2l-3,-8l0,-6l6,-6l-2,-3l1,-9l-18,-35l-8,-4l-8,-1l-7,-6l-5,-9l-16,-8l38,-37l7,0l7,-4l4,1l9,-6l7,0l2,2l8,-1l2,-3l-7,-5l0,-3l6,-1l-2,-4l-4,-1l1,-5l5,1l3,-6l4,2l10,-1l2,-4Z"/>
   <path d="M537,467l250,5l0,76l-2,0l-1,5l-9,0l-4,100l-102,-4l-100,0l-37,-1l2,-109l3,-72Z"/>
   <path d="M1264,727l1,18l6,2l3,11l4,2l7,13l1,9l6,4l10,2l7,7l1,11l7,6l3,8l5,1l2,5l6,3l2,5l12,12l8,1l1,5l11,1l9,9l0,7l8,4l2,6l34,43l3,3l8,1l0,11l-4,3l-5,0l-64,25l-33,5l-28,7l-25,-39l0,-3l6,-4l-2,-4l-6,-1l-5,-6l-8,-3l-2,-3l-12,-3l-2,-4l-5,1l-1,-2l-6,1l-6,-2l-4,3l-1,-3l-4,0l-4,2l-10,-18l-6,0l0,-16l-39,0l-1,-34l-5,2l-3,8l-6,0l1,6l-2,2l-8,-3l-4,5l1,15l-5,2l-1,4l-5,0l0,7l-2,2l-3,-4l-6,1l-3,-2l-8,-9l-12,-22l39,-72l0,-52l142,-2Z"/>
   <path d="M1233,1091l2,1l0,5l-7,3l-1,7l-3,1l1,5l7,0l0,2l-9,8l-4,1l0,3l-11,10l-9,3l-19,25l-5,14l9,22l-8,7l-22,33l-6,3l0,6l8,0l1,3l6,0l0,7l5,6l8,-2l2,3l6,1l1,-3l18,0l4,-4l19,54l-12,10l-14,20l-15,28l-1,6l-6,8l-10,24l-3,2l-21,-20l-59,-15l-20,-15l-38,-30l-7,-33l9,-22l7,-7l5,-13l16,-25l11,-23l-1,-7l-3,0l-3,4l-2,-1l3,-26l-3,0l-6,5l-9,-11l0,-4l6,-9l-1,-10l5,-9l-10,-9l-2,-7l-7,-9l0,-4l6,-8l5,-1l7,-7l5,1l2,-4l7,-3l5,-6l10,2l53,21l44,-25l5,1l17,11l19,-4l4,6l9,-6Z"/>
   <path d="M1894,1109l136,109l-60,100l-27,19l-21,20l-18,13l-104,-85l-19,-21l-11,-2l-75,-61l34,-11l32,-1l7,-2l4,-4l19,-3l6,-6l10,-5l18,-5l5,-7l3,0l2,3l2,-5l3,0l1,3l7,1l2,-2l6,-29l38,-19Z"/>
   <path d="M185,1193l9,2l49,1l64,73l96,39l1,3l-4,3l-14,2l-2,2l1,6l7,6l9,2l5,5l16,0l5,3l0,11l-3,3l-13,-2l-3,2l0,6l4,4l1,5l8,2l2,4l4,1l4,14l-8,6l-5,0l-5,-3l-5,1l1,4l7,3l-5,6l0,3l6,5l-1,3l-4,3l-13,2l-7,11l-5,0l-5,-9l-8,0l-2,3l1,10l-6,1l-1,2l-8,-2l-4,4l-2,-2l2,-11l-5,-3l-4,0l-7,8l-17,0l-1,-2l-7,-1l-6,-6l-8,2l-19,-4l-5,3l-5,0l-2,-1l1,-3l-4,-1l-2,-4l-7,0l-2,8l-7,-1l-8,2l-1,2l-8,0l-6,3l-2,5l-9,1l-1,2l-6,-3l-4,4l-3,0l-6,8l-6,-3l-6,1l-2,-3l-3,0l9,-251Z"/>
   <path d="M965,666l0,95l60,1l0,39l7,1l-1,43l-12,1l-138,-12l0,16l-4,3l-19,5l0,-12l-10,-2l-1,-11l2,-4l-2,-2l-75,-44l-8,-10l-4,4l-6,0l-8,8l-3,-3l-6,0l-5,3l-9,-2l-4,5l0,-39l9,1l2,-2l0,-13l32,1l0,7l7,-1l2,-89l105,1l12,-2l54,0l2,14l21,0Z"/>
   <path d="M671,997l150,4l-2,86l2,3l-6,9l-15,46l-21,52l-24,50l-6,-8l-13,-4l-3,2l2,6l-12,12l-10,-5l-5,10l-2,-2l-6,1l-2,-2l0,-6l3,-3l-5,-3l-7,0l0,-6l-16,-2l-2,2l-10,-10l-8,0l-2,5l-5,2l-1,-12l-5,-1l-1,3l-5,0l1,-12l-11,3l-1,-5l-5,-2l-1,8l-3,0l-3,-4l-3,3l-6,0l-6,-10l-5,2l-2,-2l-2,-7l-8,3l-2,-20l4,-3l-1,-2l19,-22l70,-93l2,-66Z"/>
   <path d="M2029,465l11,173l-93,3l-144,1l-1,-4l-2,-47l-11,-121l240,-5Z"/>
   <path d="M486,335l-3,130l54,2l-3,72l-327,-9l2,-64l3,1l26,-12l8,-1l19,-9l13,-3l34,-19l19,-8l11,-8l8,-20l8,-7l7,-2l6,1l0,11l6,2l27,-15l19,-14l4,0l19,-11l8,-1l32,-16Z"/>
   <path d="M386,863l110,2l4,5l-1,11l-7,229l-168,-7l-2,-87l1,-72l19,-22l6,-10l38,-49Z"/>
   <path d="M633,1418l-40,65l-7,21l0,4l11,6l2,5l6,4l-2,13l2,4l-7,-1l-3,3l4,4l0,3l-8,4l2,6l-6,3l0,3l7,1l1,5l-195,-4l3,-11l-3,-4l-7,-2l-1,-14l7,-1l3,-4l-5,-9l0,-11l-6,-3l0,-3l5,-3l-2,-8l6,-3l-5,-12l3,-9l-12,-16l-9,-1l-5,3l-4,-2l-2,-2l0,-11l1,-2l6,-1l-1,-10l2,-3l8,0l5,9l5,0l7,-11l13,-2l4,-3l1,-3l-6,-5l0,-3l5,-6l-7,-3l-1,-4l5,-1l5,3l5,0l8,-6l-4,-14l-4,-1l-2,-4l47,1l2,3l5,0l0,4l4,3l9,-2l3,3l4,0l0,4l4,1l2,4l6,1l3,-3l8,0l3,5l5,-10l8,-1l1,-3l6,1l3,-8l4,1l7,-8l10,-1l5,4l4,0l6,10l14,7l4,7l14,8l3,14l14,0l4,2Z"/>
   <path d="M1775,979l65,22l13,-5l41,46l48,37l-2,3l-6,1l-10,11l-13,7l-5,0l-12,8l-38,19l-6,29l-2,2l-7,-1l-1,-3l-3,0l-2,5l-2,-3l-3,0l-5,7l-18,5l-10,5l-6,6l-19,3l-4,4l-7,2l-32,1l-34,11l-39,-29l-61,-49l0,-3l4,0l37,-19l8,-2l69,-35l27,-14l7,-39l28,-32Z"/>
   <path d="M1237,1304l5,6l-4,9l9,-1l-1,18l3,2l7,-7l6,1l0,12l-3,4l-5,3l0,3l5,6l1,9l7,6l0,3l4,0l1,3l4,1l3,15l6,3l0,6l4,4l0,10l5,1l0,4l4,3l0,5l4,7l16,16l-1,7l-5,6l4,109l-237,-1l0,-3l8,-7l14,-25l13,-15l11,-24l7,-22l-1,-4l7,-9l2,-13l5,-8l-1,-5l14,-23l7,-6l3,-2l10,-24l6,-8l1,-6l15,-28l14,-20l12,-10l11,-11Z"/>
   <path d="M486,335l-32,16l-8,1l-19,11l-4,0l-19,14l-27,15l-6,-2l0,-11l-6,-1l-7,2l-8,7l-8,20l-11,8l-19,8l-34,19l-13,3l-19,9l-8,1l-26,12l-3,-1l4,-149l1,-18l2,-1l156,-26l97,-48l18,-7l-1,118Z"/>
   <path d="M2183,655l-34,62l-7,7l1,8l-5,2l0,3l-4,1l-1,3l-7,0l-5,3l0,8l-3,2l1,6l-3,2l0,4l-10,3l-8,-2l-2,3l-4,0l-2,-4l-5,2l0,6l4,4l-2,7l9,-1l3,3l-1,11l-4,4l-2,14l-1,2l-4,0l-1,3l3,3l-3,7l-13,3l-42,2l1,-4l4,0l1,-2l4,1l11,-7l-12,-186l-11,-173l42,-2l8,3l2,3l-1,8l8,5l1,5l5,1l3,-2l1,4l5,3l1,9l3,4l-1,11l5,3l0,4l-2,1l1,4l9,-1l2,3l3,0l3,-5l6,-1l5,4l2,-5l3,0l2,10l18,2l1,11l6,2l2,3l7,-1l0,6l-8,3l-2,3l-1,9l12,0l7,7l1,21l-4,0l-1,4l6,9l-2,8l3,3l2,22l-5,0l-4,4l0,5Z"/>
   <path d="M324,1103l168,7l1,14l-3,5l-7,5l0,3l-4,4l-13,4l-5,9l3,13l12,1l11,11l-2,49l-17,17l-4,-1l-4,6l-7,35l0,5l4,3l0,3l-8,1l3,10l-7,9l0,4l6,4l-29,13l-16,0l-5,-5l-9,-2l-7,-6l-1,-6l2,-2l14,-2l4,-3l-1,-3l-96,-39l-64,-73l53,-48l8,-5l1,-3l4,0l2,-5l11,0l3,-3l-1,-29Z"/>
   <path d="M2090,1402l-3,5l-9,4l3,9l-16,14l5,6l-31,19l0,7l-8,3l-2,9l-7,4l-2,7l-9,6l2,4l-3,6l3,1l0,5l-3,3l-19,5l-18,11l-19,22l-7,18l-6,1l-116,2l-2,-2l2,-8l5,-2l0,-7l8,-1l1,-8l4,-2l3,-6l-1,-3l5,-6l-1,-5l6,-5l-2,-9l5,-1l1,-9l6,1l-3,-27l5,-5l-3,-2l-1,-8l21,-40l-4,-34l24,-14l18,-13l21,-20l27,-19l2,3l6,-4l11,1l10,5l1,3l4,0l0,-5l3,-1l9,20l4,-1l0,-5l3,1l4,12l7,6l0,9l7,-3l0,10l6,4l6,-2l6,2l-3,4l0,5l6,8l14,-3l7,14l2,2l5,-1Z"/>
   <path d="M985.5,1089L986.51,1093.02L966.6,1127.19L964.6,1129.2L960.61,1127.22L953.62,1128.25L953.63,1134.27L950.64,1137.29L952.67,1151.34L941.72,1171.44L935.74,1179.49L929.75,1180.51L917.79,1191.58L914.81,1200.62L915.83,1212.66L908.86,1225.73L910.89,1236.77L906.93,1260.86L891.97,1269.94L886,1283l-6,7l-3,14l-3,0l2,12l-6,7l-83,-2l-3,-4l-1,-9l-10,-3l-2,-3l-46,-2l2,-6l4,-3l0,-5l15,-20l9,-19l24,-50l21,-52l15,-46l6,-9L985.5,1089Z"/>
   <path d="M389,710l-3,153l-38,49l-17,-22l-39,-2l-2,-6l-95,-1l6,-176l26,1l1,-2l4,0l2,3l100,6l10,0l0,-3l45,0Z"/>
   <path d="M532,648l37,1l-1,69l-1,8l-3,0l-1,12l16,1l0,26l-1,24l-23,0l-1,7l-22,-1l0,20l-9,1l-2,10l-7,1l0,19l-6,6l0,7l-7,3l-5,-1l0,4l-110,-2l3,-153l2,-5l6,-2l0,-4l7,0l1,-6l6,0l0,-6l7,0l0,-5l4,0l2,-6l6,-2l0,-4l7,0l1,-4l8,-3l0,-5l7,-1l1,-9l77,4l1,-4Z"/>
   <path d="M858,858l-21,0l-14,32l-2,111l-150,-4l1,-68l5,-135l5,3l3,-3l0,-4l3,0l2,3l2,-1l4,3l5,-6l3,0l8,8l2,-1l0,-7l5,-1l4,-5l9,2l5,-3l6,0l3,3l8,-8l6,0l4,-4l8,10l75,44l2,2l-2,4l1,11l10,2l0,12Z"/>
   <path d="M499,881l4,3l-1,23l8,8l-4,11l16,8l9,0l-4,14l8,1l2,4l-2,2l-8,-2l-6,4l0,5l9,4l4,-1l5,-7l6,0l1,2l6,-1l5,4l3,0l1,-4l3,0l2,4l3,-2l1,-7l7,0l6,6l3,0l0,-2l7,1l4,-8l4,1l2,4l6,-1l4,2l3,-6l7,3l1,-2l9,0l5,-5l8,2l6,-5l3,-6l7,-2l3,-5l7,-2l-1,68l-2,66l-70,93l-19,22l-12,-1l-2,4l-3,0l-5,-8l-6,0l-13,-12l-2,-12l6,-6l-7,-2l-2,3l-2,-1l-2,-14l-7,3l-1,-9l-5,-1l-4,-4l-1,-7l-6,-2l-3,-4l-11,5l7,-229Z"/>
   <path d="M2150,1137l3,4l-1,11l4,4l9,1l6,-6l10,1l7,3l11,12l3,31l-2,1l-1,11l5,17l5,1l5,5l16,-3l7,4l8,14l3,15l11,10l10,3l10,11l7,18l24,13l5,5l5,13l6,2l7,9l1,5l-7,8l-9,1l-7,7l-16,-3l-3,11l-9,7l-1,4l-15,6l-9,0l-18,11l-2,-2l0,-6l7,-6l2,-7l-2,-2l-1,-10l-7,-1l-13,-8l-177,-131l25,-34l28,-25l26,-22l24,-13Z"/>
   <path d="M2220,900l5,1l-1,4l-6,2l-7,6l-4,12l-5,5l-12,7l-6,1l-4,5l-3,0l-7,6l-2,10l5,2l0,3l-11,7l-9,1l0,3l-3,2l-10,2l-3,7l-6,4l2,5l-24,21l-7,1l-24,14l-9,1l-11,5l-13,1l-6,-14l-31,-48l2,-5l25,-15l0,-2l-21,-25l-6,-4l-2,-7l-12,-9l0,-4l-3,-1l-2,-7l-4,1l-5,-2l-2,-4l1,-3l5,1l2,-2l0,-5l9,-7l0,-5l1,-4l8,-3l3,-12l5,-4l3,-7l6,-1l4,3l3,-6l3,-1l42,-2l13,-3l80,-7l1,3l-9,46l29,4l13,23l5,5l15,-5Z"/>
   <path d="M677,794l-5,135l-7,2l-3,5l-7,2l-3,6l-6,5l-8,-2l-5,5l-9,0l-1,2l-7,-3l-3,6l-4,-2l-6,1l-2,-4l-4,-1l-4,8l-7,-1l0,2l-3,0l-6,-6l-7,0l-1,7l-3,2l-2,-4l-3,0l-1,4l-3,0l-5,-4l-6,1l-1,-2l-6,0l-5,7l-4,1l-9,-4l0,-5l6,-4l8,2l2,-2l-2,-4l-8,-1l4,-14l-9,0l-16,-8l4,-11l-8,-8l1,-23l-4,-3l1,-11l-4,-5l0,-4l5,1l7,-3l0,-7l6,-6l0,-19l7,-1l2,-10l9,-1l0,-20l22,1l1,-7l23,0l1,-24l28,0l1,-24l15,0l0,2l11,1l44,1l-1,49Z"/>
   <path d="M366,1441l0,11l2,2l4,2l5,-3l9,1l12,16l-3,9l5,12l-6,3l2,8l-5,3l0,3l6,3l0,11l5,9l-3,4l-7,1l1,14l7,2l3,4l-3,11l-181,-6l-8,2l-2,-2l-36,-1l3,-116l3,0l2,3l6,-1l6,3l6,-8l3,0l4,-4l6,3l1,-2l9,-1l2,-5l6,-3l8,0l1,-2l8,-2l7,1l2,-8l7,0l2,4l4,1l-1,3l2,1l5,0l5,-3l19,4l8,-2l6,6l7,1l1,2l17,0l7,-8l4,0l5,3l-2,11l2,2l4,-4l8,2Z"/>
   <path d="M2183,655l9,7l2,7l5,2l4,6l-2,9l8,5l0,7l7,1l-1,10l2,3l10,1l3,-3l5,0l8,3l1,7l7,2l-2,4l1,5l15,-3l4,5l5,1l4,-6l4,0l5,10l14,-2l1,-3l5,0l1,5l-3,6l2,4l8,2l3,8l7,5l-1,5l-9,5l-14,1l-4,10l-9,2l0,6l-13,11l-5,10l0,7l-6,5l-1,9l2,1l0,4l-6,10l-1,7l-7,7l-2,7l-8,9l-6,2l0,3l-6,5l-6,1l-3,10l-15,5l-5,-5l-13,-23l-29,-4l9,-46l-1,-3l-80,7l3,-7l-3,-3l1,-3l4,0l1,-2l2,-14l4,-4l1,-11l-3,-3l-9,1l2,-7l-4,-4l0,-6l5,-2l2,4l4,0l2,-3l8,2l10,-3l0,-4l3,-2l-1,-6l3,-2l0,-8l5,-3l7,0l1,-3l4,-1l0,-3l5,-2l-1,-8l7,-7l34,-62Z"/>
   <path d="M1503,1139.5L1502,1152.53L1496,1159.55L1489,1163.57L1488,1169.59L1493,1179.62L1491,1192.64L1499,1202.68L1503,1203.69L1505,1214.71L1484,1235.8L1480,1235.8L1482,1245.83L1476,1250.85L1475,1256.86L1478,1259.87L1478,1264.88L1483,1268.9L1510,1268.96L1517,1283l-24,10l-37,3l-30,7l-33,3l-20,7l-6,0l-3,-3l1,-7l-5,0l-16,13l-11,4l-3,-1l0,-4l11,-12l12,-8l1,-3l-5,-1l-18,10l-21,20l-19,12l-3,4l-11,1l-14,15l-4,-5l3,-4l0,-12l-6,-1l-7,7l-3,-2l1,-18l-9,1l4,-9l-5,-6L1242,1295.02L1261,1276.06L1276,1265.09L1289,1260.11L1286,1252.12L1287,1248.13L1377,1192.29L1399,1183.32L1411,1175.35L1421,1173.36L1423,1170.37L1419,1164.38L1419,1160.38L1439,1157.41L1450,1153.42L1477,1150.46L1498,1139.49L1503,1139.5Z"/>
   <path d="M1595,1123l61,49l-51,39l42,135l-6,3l-9,0l-12,12l-8,0l-6,8l-6,-2l-5,9l-3,1l-2,6l-5,-1l-3,-4l-2,-19l-2,-3l-6,-2l-11,-9l-10,-1l-5,-10l-7,-1l-20,-21l-4,-12l0,-5l4,-8l-2,-4L1510,1268.96L1483,1268.9L1478,1264.88L1478,1259.87L1475,1256.86L1476,1250.85L1482,1245.83L1480,1235.8L1484,1235.8L1505,1214.71L1503,1203.69L1499,1202.68L1491,1192.64L1493,1179.62L1488,1169.59L1489,1163.57L1496,1159.55L1502,1152.53L1503,1139.5L1509,1145.54L1515,1147.57L1516,1145.58L1525,1145.62L1526,1142.63L1532,1143.65L1534,1137.68L1545,1138.73L1548,1134.75L1555,1134.78L1556,1128.8L1564,1130.84L1569,1127.87L1575,1127.89L1580,1123.92L1588,1124.95L1589,1121.97L1595,1123Z"/>
   <path d="M1517,1283l2,4l-4,8l0,5l4,12l20,21l-2,4l-10,1l-4,-2l-3,6l-5,-1l-1,5l4,1l2,4l-6,1l0,3l7,5l-2,3l-8,1l-2,-2l-7,0l-9,6l-4,-1l-7,4l-7,0l-38,37l-20,21l-24,3l-55,13l-21,18l1,-7l-16,-16l-4,-7l0,-5l-4,-3l0,-4l-5,-1l0,-10l-4,-4l0,-6l-6,-3l-3,-15l-4,-1l-1,-3l-4,0l0,-3l-7,-6l-1,-9l-5,-6l0,-3l5,-3l4,5l14,-15l11,-1l3,-4l19,-12l21,-20l18,-10l5,1l-1,3l-12,8l-11,12l0,4l3,1l11,-4l16,-13l5,0l-1,7l3,3l6,0l20,-7l33,-3l30,-7l37,-3l24,-10Z"/>
   <path d="M1072,1085l-5,6l-7,3l-2,4l-5,-1l-7,7l-5,1l-6,8l0,4l7,9l2,7l10,9l-5,9l1,10l-6,9l0,4l9,11l6,-5l3,0l-3,26l2,1l3,-4l3,0l1,7l-11,23l-16,25l-5,13l-7,7l-9,22l-11,22l-4,1l-50,-27l-3,7l-1,16l-3,4l-20,-21l-10,-2l-32,-17L891.97,1269.94L906.93,1260.86L910.89,1236.77L908.86,1225.73L915.83,1212.66L914.81,1200.62L917.79,1191.58L929.75,1180.51L935.74,1179.49L941.72,1171.44L952.67,1151.34L950.64,1137.29L953.63,1134.27L953.62,1128.25L960.61,1127.22L964.6,1129.2L966.6,1127.19L986.51,1093.02L985.5,1089L992.45,1086.9L1050.13,1083.26L1071.02,1083.03L1072,1085Z"/>
   <path d="M1437,1408l16,8l5,9l7,6l8,1l8,4l18,35l-1,9l2,3l-6,6l0,6l3,8l5,2l2,7l-8,3l-3,6l-5,3l0,54l-172,0l-4,-109l5,-6l21,-18l55,-13l24,-3l20,-21Z"/>
   <path d="M1734,806l-2,51l16,34l14,-3l4,1l0,47l9,43l-28,32l-7,39l-27,14l-5,-9l-5,-19l-35,5l-3,-8l0,-3l3,-1l0,-5l-3,-2l1,-9l-8,-1l0,-18l2,-1l0,-4l-3,-4l6,-3l-1,-6l-19,-19l1,-19l-2,-7l-18,-5l0,-9l-9,-35l18,-2l50,-57l15,-16l36,-1Z"/>
   <path d="M2030,1218l17,13l177,131l-26,29l-2,3l2,6l-7,7l-24,-17l-3,0l-4,5l-10,-8l-4,0l-12,16l0,4l11,11l5,2l4,6l-25,16l-12,-19l-6,0l-12,-21l-2,-2l-7,2l-5,1l-2,-2l-7,-14l-14,3l-6,-8l0,-5l3,-4l-6,-2l-6,2l-6,-4l0,-10l-7,3l0,-9l-7,-6l-4,-12l-3,-1l0,5l-4,1l-9,-20l-3,1l0,5l-4,0l-1,-3l-10,-5l-11,-1l-6,4l-2,-3l60,-100Z"/>
   <path d="M2040,638l12,186l-11,7l-4,-1l-1,2l-4,0l-1,4l-3,1l-3,6l-4,-3l-6,1l-3,7l-5,4l-3,12l-8,3l-1,4l-4,0l-1,-3l-6,1l-5,-4l-2,-6l-1,-31l-1,-3l-9,-2l0,-10l-4,-2l-2,-8l0,-6l3,-1l-1,-10l-20,-3l-10,-9l-8,-3l-4,-5l-10,-3l-2,-3l1,-10l-2,-4l21,-37l-1,-4l-9,-6l11,-21l-1,-7l14,-27l3,0l2,-3l93,-3Z"/>
   <path d="M1550,672l215,20l0,9l-20,71l-11,34l-36,1l-15,16l-52,-14l-58,-48l-23,-89Z"/>
   <path d="M1582,875l-2,15l1,23l-8,18l-3,10l1,4l-5,6l1,6l-6,25l9,0l33,-9l6,0l2,2l8,-1l11,11l16,1l0,5l-3,4l2,12l4,6l9,-1l8,1l-1,9l3,2l0,5l-3,1l0,3l3,8l35,-5l5,19l5,9l-69,35l-8,2l-37,19l-4,0l0,3L1589,1121.97L1588,1124.95L1580,1123.92L1575,1127.89L1569,1127.87L1564,1130.84L1556,1128.8L1555,1134.78L1548,1134.75L1545,1138.73L1534,1137.68L1532,1143.65L1526,1142.63L1525,1145.62L1516,1145.58L1515,1147.57L1509,1145.54L1503,1139.5L1508,1132l5,-4l4,-10l15,-12l5,-10l1,-41l5,-12l10,-11l5,-13l-2,-5l-8,-3l-12,-15l-9,-22l6,-16l3,-35l-13,-15l-3,-18l5,-9l35,-9l22,3Z"/>
   <path d="M191,1012l14,2l117,2l2,87l1,29l-3,3l-11,0l-2,5l-4,0l-1,3l-8,5l-53,48l-49,-1l-9,-2l6,-181Z"/>
   <path d="M2013,1511l37,3l17,6l8,6l-16,12l-10,18l-8,24l-14,20l-11,4l-9,16l3,12l17,13l-2,18l3,2l0,4l-2,3l-4,0l-3,5l-2,7l1,11l10,13l10,7l7,14l3,12l-2,3l-4,0l-2,4l-4,-1l-4,3l0,6l-4,2l-3,9l-17,2l-4,4l-4,0l-3,5l-11,0l-2,-3l-28,1l-14,-164l-1,-41l6,-1l7,-18l19,-22l18,-11l19,-5l3,-3Z"/>
   <path d="M1065,1363l20,15l59,15l21,20l-7,6l-14,23l1,5l-5,8l-2,13l-7,9l1,4l-7,22l-11,24l-13,15l-14,25l-8,7l0,3l-105,-1l1,-5l12,-15l17,-31l14,-45l8,-14l6,-20l8,-10l-1,-15l8,-3l-2,-8l-6,-1l0,-10l18,-16l8,-20Z"/>
   <path d="M569,649l100,0l102,4l-2,89l-7,1l0,-7l-32,-1l0,13l-2,2l-9,-1l0,39l-5,1l0,7l-2,1l-8,-8l-3,0l-5,6l-4,-3l-2,1l-2,-3l-3,0l0,4l-3,3l-5,-3l1,-49l-44,-1l-11,-1l0,-2l-15,0l-1,24l-28,0l0,-26l-16,-1l1,-12l3,0l1,-8l1,-69Z"/>
   <path d="M1351,1033l2,1l1,17l0,52l21,4l-5,4l-27,11l-38,22l-3,3l0,14l-43,33l0,12l-8,5l-33,34l-11,16l-4,4l-18,0l-1,3l-6,-1l-2,-3l-8,2l-5,-6l0,-7l-6,0l-1,-3l-8,0l0,-6l6,-3l22,-33l8,-7l-9,-22l5,-14l19,-25l9,-3l11,-10l0,-3l4,-1l9,-8l0,-2l-7,0l-1,-5l3,-1l1,-7l7,-3l0,-5l-2,-1l13,-10l20,-6l68,-37l17,-5Z"/>
   <path d="M1802,638l1,4l144,-1l-2,3l-3,0l-14,27l1,7l-11,21l9,6l1,4l-21,37l-68,22l-94,4l20,-71l0,-9l7,-38l0,-13l30,-3Z"/>
   <path d="M1044,658l55,70l23,1l0,52l-39,72l-51,-6l-1,-2l1,-43l-7,-1l0,-39l-60,-1l0,-95l1,-7l78,-1Z"/>
   <path d="M1375,1107l52,8l19,-7l4,7l12,-2l4,3l5,-2l3,11l8,-3l0,6l3,6l5,-4l7,1l4,-3l5,0l2,4L1503,1139.5L1498,1139.49L1477,1150.46L1450,1153.42L1439,1157.41L1419,1160.38L1419,1164.38L1423,1170.37L1421,1173.36L1411,1175.35L1399,1183.32L1377,1192.29L1287,1248.13L1286,1252.12L1289,1260.11L1276,1265.09L1261,1276.06L1242,1295.02L1237,1304l-11,11l-19,-54l11,-16l33,-34l8,-5l0,-12l43,-33l0,-14l3,-3l38,-22l27,-11l5,-4Z"/>
   <path d="M1978,892l2,4l5,2l4,-1l2,7l3,1l0,4l12,9l2,7l6,4l21,25l0,2l-25,15l-2,5l31,48l6,14l-5,3l-20,2l-4,3l-9,1l-10,7l-27,5l-6,3l-3,5l-9,3l-6,8l-4,1l-48,-37l-41,-46l53,-27l1,-4l8,-4l9,-1l24,-12l-2,-11l-7,-1l-1,-5l-4,-4l2,-20l4,-1l0,-5l7,1l13,-14l12,-2l6,6Z"/>
   <path d="M195,881l95,1l2,6l39,2l17,22l-6,10l-19,22l-1,72l-117,-2l-14,-2l4,-131Z"/>
   <path d="M1656,1172l39,29l75,61l11,2l19,21l-56,31l-50,9l-47,21l-42,-135l51,-39Z"/>
   <path d="M2173,964l9,17l8,6l1,10l9,9l0,7l-5,6l-11,0l0,5l5,4l0,4l-5,4l-2,9l-8,5l-2,5l-14,-2l-3,9l-6,3l0,5l5,4l0,4l-5,8l-2,12l3,3l7,1l-1,5l-7,7l0,4l4,6l0,6l-4,1l1,6l-24,13l-26,22l-25,-20l4,-9l0,-7l3,-2l-2,-8l-8,-6l-9,-12l-19,7l0,-6l-11,-12l-7,-20l-4,0l0,5l-4,3l-5,-1l-3,-6l-6,1l-2,-2l-3,-6l-2,-17l10,-7l9,-1l4,-3l20,-2l5,-3l13,-1l11,-5l9,-1l24,-14l7,-1l24,-21l-2,-5l6,-4l3,-7l10,-2l3,-2l0,-3l9,-1l11,-7Z"/>
   <path d="M1997,1054l2,17l3,6l2,2l6,-1l3,6l5,1l4,-3l0,-5l4,0l7,20l11,12l0,6l19,-7l9,12l8,6l2,8l-3,2l0,7l-4,9l25,20l-28,25l-25,34l-17,-13l-136,-109l12,-8l5,0l13,-7l10,-11l6,-1l2,-3l4,-1l6,-8l9,-3l3,-5l6,-3l27,-5Z"/>
   <path d="M1548,1011l8,3l2,5l-5,13l-10,11l-5,12l-1,41l-5,10l-15,12l-4,10l-5,4l-2,-4l-5,0l-4,3l-7,-1l-5,4l-3,-6l0,-6l-8,3l-3,-11l-5,2l-4,-3l-12,2l-4,-7l-19,7l-52,-8l-21,-4l0,-52l29,-9l45,-10l27,-10l10,-1l12,6l4,-7l12,-2l11,-6l10,2l13,-2l3,2l5,-3l4,0l1,2l8,-2Z"/>
   <path d="M1520,890l3,18l13,15l-3,35l-6,16l9,22l12,15l-8,2l-1,-2l-4,0l-5,3l-3,-2l-13,2l-10,-2l-11,6l-12,2l-4,7l-12,-6l-10,1l-27,10l-45,10l-29,9l-1,-17l-2,-1l32,-32l26,-40l16,-16l2,-5l4,-3l0,-11l10,-1l15,-7l34,-2l8,-30l22,4Z"/>
   <path d="M2129,1442l0,4l11,4l-1,6l5,4l-6,22l-3,3l0,5l7,1l1,2l2,-2l8,0l2,3l-1,3l-8,4l-11,3l-26,1l-7,4l-20,19l-7,-2l-8,-6l-17,-6l-37,-3l0,-5l-3,-1l3,-6l-2,-4l9,-6l2,-7l7,-4l2,-9l8,-3l0,-7l31,-19l-5,-6l16,-14l-3,-9l9,-4l3,-5l7,-2l2,2l12,21l6,0l12,19Z"/>
   <path d="M2224,1362l13,8l7,1l1,10l2,2l-2,7l-7,6l0,6l2,2l-13,15l-13,5l-2,7l-7,8l-12,4l-9,6l-2,15l3,5l0,9l-3,6l-4,3l-13,0l-10,7l-2,-3l-8,0l-2,2l-1,-2l-7,-1l0,-5l3,-3l6,-22l-5,-4l1,-6l-11,-4l0,-4l25,-16l-4,-6l-5,-2l-11,-11l0,-4l12,-16l4,0l10,8l4,-5l3,0l24,17l7,-7l-2,-6l2,-3l26,-29Z"/>
   <path d="M1582,875l5,0l3,4l5,0l4,3l16,0l9,35l0,9l18,5l2,7l-1,19l19,19l1,6l-6,3l3,4l0,4l-2,1l0,18l-9,1l-4,-6l-2,-12l3,-4l0,-5l-16,-1l-11,-11l-8,1l-2,-2l-6,0l-33,9l-9,0l6,-25l-1,-6l5,-6l-1,-4l3,-10l8,-18l-1,-23l2,-15Z"/>
  </g>
 </g>
</svg>
